<svg xmlns="http://www.w3.org/2000/svg" width="708.872" height="395.734" viewBox="0 0 187.556 104.705"><g transform="translate(-14.627 -19.466)" stroke="#fff" stroke-width="1.323"><circle cx="24.36" cy="29.199" r="9.071" fill="#ffd811"/><circle cx="150.427" cy="29.199" r="9.071" fill="#ffd811"/><circle cx="192.45" cy="29.199" r="9.071" fill="#ffd811"/><circle cx="108.405" cy="29.199" r="9.071" fill="#ffd811"/><circle cx="66.382" cy="29.199" r="9.071" fill="#ffd811"/><circle cx="24.36" cy="57.612" r="9.071" fill="#ff5911"/><circle cx="150.427" cy="58.119" r="9.071" fill="#ff5911"/><circle cx="192.45" cy="57.612" r="9.071" fill="#ff5911"/><circle cx="108.405" cy="58.119" r="9.071" fill="#ff5911"/><circle cx="66.382" cy="57.741" r="9.071" fill="#ff5911"/><circle cx="24.36" cy="85.333" r="9.071" fill="#00f"/><circle cx="192.45" cy="85.333" r="9.071" fill="#00f"/><circle cx="150.427" cy="85.333" r="9.071" fill="#00f"/><circle cx="108.405" cy="85.333" r="9.071" fill="#00f"/><circle cx="66.382" cy="85.333" r="9.071" fill="#00f"/><circle cx="24.36" cy="114.437" r="9.071" fill="#8a0"/><circle cx="192.45" cy="114.437" r="9.071" fill="#8a0"/><circle cx="150.427" cy="114.437" r="9.071" fill="#8a0"/><circle cx="108.405" cy="114.437" r="9.071" fill="#8a0"/><circle cx="66.382" cy="114.437" r="9.071" fill="#8a0"/></g></svg>